<svg xmlns="http://www.w3.org/2000/svg" viewBox="0 0 480 480"><path d="M400 40H0v400h480V40h-80zM64 424H16v-48h48v48zm0-64H16v-48h48v48zm0-64H16v-48h48v48zm0-64H16v-48h48v48zm0-64H16v-48h48v48zm0-64H16V56h48v48zm336 320H80V56h320v368zm64 0h-48v-48h48v48zm0-64h-48v-48h48v48zm0-64h-48v-48h48v48zm0-64h-48v-48h48v48zm0-64h-48v-48h48v48zm0-64h-48V56h48v48z"/><path d="M302.971 236.003a7.999 7.999 0 00-2.971-2.971l-112-64A8 8 0 00176 176v128a8 8 0 0012 6.92l112-64a8 8 0 002.971-10.917zM192 290.208V189.792L279.872 240 192 290.208z"/></svg>