<svg viewBox="0 0 512 512" xmlns="http://www.w3.org/2000/svg">
  <defs>
    <linearGradient x1="50%" y1="0%" x2="50%" y2="100%" id="a">
      <stop stop-color="#FF1343" offset="0%"/>
      <stop stop-color="#FF5420" offset="100%"/>
    </linearGradient>
  </defs>
  <path d="M394.886 100.088c48.126 42.947 97.9 81.268 112.404 130.491 14.504 49.223-5.933 110.009-41.533 151.964-35.6 42.285-86.693 66.071-140.752 89.196-53.73 23.455-111.085 45.92-169.76 38.982-58.344-6.937-118.666-43.277-142.4-95.473-23.403-51.866-10.877-119.589 6.264-181.365 17.14-61.447 38.896-116.947 79.11-161.545C138.106 27.74 196.45-6.286 248.862.981c52.081 7.599 98.23 55.83 146.025 99.107z" fill="url(#a)" fill-rule="nonzero"/>
</svg>
