<svg width="1600" height="900" viewBox="0 0 1600 900" fill="none" xmlns="http://www.w3.org/2000/svg">
  <rect width="1600" height="900" fill="#17120f"/>
  <rect width="1600" height="900" fill="url(#bg)"/>
  <g opacity="0.9">
    <circle cx="800" cy="450" r="210" fill="#f97316" fill-opacity="0.14"/>
    <circle cx="800" cy="450" r="132" fill="#f97316" fill-opacity="0.22"/>
    <circle cx="800" cy="450" r="48" fill="#fb923c"/>
  </g>
  <g stroke="#fdba74" stroke-width="10" stroke-linecap="round" opacity="0.9">
    <path d="M660 450c42-64 238-64 280 0"/>
    <path d="M698 546c64 46 140 46 204 0"/>
    <path d="M698 354c64-46 140-46 204 0"/>
  </g>
  <g fill="#fff7ed" opacity="0.88">
    <circle cx="490" cy="292" r="12"/>
    <circle cx="1110" cy="292" r="12"/>
    <circle cx="490" cy="608" r="12"/>
    <circle cx="1110" cy="608" r="12"/>
  </g>
  <g stroke="#9a3412" stroke-width="4" opacity="0.42">
    <path d="M502 292h226"/>
    <path d="M872 292h226"/>
    <path d="M502 608h226"/>
    <path d="M872 608h226"/>
  </g>
  <text x="800" y="770" text-anchor="middle" fill="#fff7ed" font-family="Inter, Arial, sans-serif" font-size="64" font-weight="800">Confirmation bias</text>
  <text x="800" y="828" text-anchor="middle" fill="#fed7aa" font-family="Inter, Arial, sans-serif" font-size="34" font-weight="500">when AI sounds like agreement</text>
  <defs>
    <radialGradient id="bg" cx="0" cy="0" r="1" gradientUnits="userSpaceOnUse" gradientTransform="translate(800 450) rotate(90) scale(620 980)">
      <stop stop-color="#7c2d12"/>
      <stop offset="0.55" stop-color="#431407"/>
      <stop offset="1" stop-color="#0f0a08"/>
    </radialGradient>
  </defs>
</svg>
