<svg viewBox="0 0 24 22" xmlns="http://www.w3.org/2000/svg">
  <path d="M23.728 7.126L16.876.273a.823.823 0 00-.602-.254.823.823 0 00-.602.254.824.824 0 00-.255.603v3.426H12.42C6.058 4.302 2.155 6.1.71 9.695.235 10.891 0 12.376 0 14.152c0 1.48.567 3.493 1.7 6.036a31.568 31.568 0 00.32.722c.054.116.112.214.175.294.107.152.232.228.375.228a.39.39 0 00.314-.134c.076-.089.114-.2.114-.334 0-.08-.011-.199-.034-.355a2.768 2.768 0 01-.033-.314 22.605 22.605 0 01-.067-1.646c0-.901.078-1.709.234-2.422.156-.714.373-1.332.65-1.854a4.656 4.656 0 011.07-1.352c.437-.379.908-.689 1.412-.93a7.655 7.655 0 011.78-.569 16.97 16.97 0 012.06-.287c.692-.054 1.475-.08 2.35-.08h2.997v3.426c0 .231.085.432.254.602.17.17.37.254.603.254a.825.825 0 00.602-.254l6.852-6.853c.17-.17.255-.37.255-.602a.825.825 0 00-.255-.602z" fill="#000" fill-rule="nonzero"/>
</svg>
